<svg xmlns="http://www.w3.org/2000/svg" viewBox="822.99 615.2499999999997 49.80000000000007 18.600000000000136">
  <path d="M834.66,618.67c0.3,1.48,0.22,2.86-0.22,4.14c-0.44,1.29-1.09,2.52-1.95,3.69c-0.45,0.57-0.96,0.91-1.56,1.02   c-0.3,0.08-0.55,0.12-0.75,0.14c-0.2,0.02-0.44-0.08-0.7-0.31c-0.3-0.34-0.58-0.69-0.86-1.05c-0.28-0.36-0.42-0.8-0.42-1.33   c0-0.08,0.01-0.14,0.03-0.2c0.02-0.06,0.03-0.12,0.03-0.2c0.04-0.11,0.05-0.3,0.05-0.57c0-0.08,0.01-0.23,0.03-0.45   c0.02-0.23-0.03-0.34-0.14-0.34c-0.08-0.11-0.18-0.08-0.31,0.08s-0.23,0.29-0.31,0.37c-0.11,0.23-0.17,0.51-0.17,0.85   c-0.07,0.3-0.22,0.49-0.44,0.57c-0.22,0.08-0.39-0.04-0.5-0.34l-0.22-0.62c-0.41,0.19-0.76,0.45-1.06,0.79   c-0.3,0.34-0.58,0.74-0.83,1.19c-0.33,0.53-0.49,1.01-0.47,1.45c0.02,0.43,0.09,0.82,0.22,1.16c0.13,0.34,0.29,0.63,0.47,0.88   c0.18,0.25,0.28,0.42,0.28,0.54c0.04,0.19,0.04,0.36,0,0.51s-0.13,0.23-0.28,0.23c-0.04,0.04-0.13,0-0.28-0.11l-0.39-0.45   c-0.41-0.64-0.71-1.36-0.92-2.16c-0.21-0.79-0.1-1.59,0.31-2.38c0.18-0.38,0.45-0.81,0.81-1.31c0.35-0.49,0.71-0.83,1.08-1.02   c0.3-0.15,0.57-0.27,0.83-0.37c0.26-0.09,0.52-0.18,0.78-0.25c0.07-0.08,0.17-0.11,0.28-0.11l0.39-0.17l0.33-0.11   c0.07-0.08,0.15-0.11,0.22-0.11c0.26-0.11,0.39-0.36,0.39-0.74c-0.04-0.3,0.04-0.59,0.22-0.85c0.07-0.53,0.28-1.06,0.61-1.59   c0.41-0.57,0.85-0.87,1.33-0.91c0.48-0.08,0.87,0,1.17,0.23c0.3,0.23,0.35,0.59,0.17,1.08c-0.19,0.49-0.48,1-0.89,1.53   c-0.22,0.3-0.43,0.56-0.61,0.77c-0.19,0.21-0.39,0.37-0.61,0.48c-0.26,0.15-0.39,0.25-0.39,0.28c-0.08,0.15-0.11,0.38-0.11,0.68   c0,0.45-0.05,0.84-0.14,1.16c-0.09,0.32-0.15,0.62-0.17,0.91s0.06,0.55,0.22,0.79s0.51,0.5,1.03,0.77c0.33-0.19,0.7-0.39,1.08-0.6   c0.39-0.21,0.64-0.52,0.75-0.94c0.59-0.95,0.98-1.82,1.17-2.61c0.19-0.79,0.3-1.51,0.33-2.16c0.04-0.64,0.05-1.19,0.03-1.65   s0.06-0.79,0.25-1.02c0.11-0.26,0.26-0.25,0.44,0.06C834.47,618.18,834.58,618.4,834.66,618.67z M827.76,631.61   c0.3-0.42,0.6-0.49,0.92-0.23c0.31,0.27,0.38,0.64,0.19,1.13c-0.11,0.3-0.28,0.42-0.5,0.34c-0.22-0.08-0.41-0.11-0.56-0.11   c-0.3,0-0.59,0.03-0.89,0.08c-0.3,0.06-0.61,0.05-0.95-0.03c-0.15,0-0.26-0.09-0.33-0.28c0-0.11,0.09-0.2,0.28-0.25   c0.18-0.06,0.39-0.11,0.61-0.17s0.45-0.12,0.7-0.2C827.48,631.82,827.65,631.72,827.76,631.61z M830.82,619.29   c0-0.08-0.07-0.11-0.22-0.11c-0.3,0-0.57,0.19-0.81,0.57c-0.24,0.38-0.4,0.7-0.47,0.96c-0.04,0.26,0,0.49,0.11,0.68   c0.04-0.04,0.13-0.16,0.28-0.37c0.15-0.21,0.31-0.43,0.5-0.68c0.18-0.25,0.34-0.47,0.47-0.68   C830.81,619.45,830.86,619.33,830.82,619.29z M832.16,627.46c0-0.3,0.13-0.47,0.39-0.51c0.18,0,0.33,0.21,0.44,0.63   c0.04,0.23,0.06,0.42,0.06,0.57s0,0.36,0,0.62c-0.07,0.49-0.19,0.91-0.33,1.25c-0.11,0.27-0.24,0.36-0.39,0.28   c-0.15-0.08-0.22-0.26-0.22-0.57s-0.01-0.7-0.03-1.19C832.05,628.05,832.08,627.69,832.16,627.46z M838.83,630.02   c0.33,0,0.64-0.01,0.92-0.03c0.28-0.02,0.53-0.08,0.75-0.2c0,0.04,0.06,0.08,0.17,0.11c-0.19,0.3-0.33,0.45-0.45,0.45   c-0.04,0-0.13,0.02-0.28,0.06c-0.15,0.04-0.32,0.08-0.5,0.14c-0.19,0.06-0.36,0.11-0.53,0.17s-0.31,0.08-0.42,0.08   c-0.15,0.04-0.27,0.06-0.36,0.06s-0.18,0-0.25,0c-0.3,0.04-0.66,0-1.08-0.11c-0.43-0.11-0.82-0.28-1.17-0.51   c-0.35-0.23-0.65-0.5-0.89-0.82c-0.24-0.32-0.32-0.65-0.25-0.99c0.04-0.11,0.08-0.21,0.14-0.28c0.05-0.08,0.12-0.17,0.19-0.28   c0.07-0.11,0.17-0.22,0.28-0.31s0.2-0.18,0.28-0.26c0.26-0.19,0.63-0.46,1.11-0.82c0.48-0.36,0.83-0.58,1.06-0.65l0.39-0.28   c0.19-0.04,0.5-0.19,0.95-0.45c0.41-0.23,0.61-0.38,0.61-0.45v-1.02c0.04-0.19,0.06-0.51,0.08-0.96s0.06-0.78,0.14-0.96   c0.26-0.49,0.45-0.83,0.58-1.02c0.13-0.19,0.24-0.32,0.33-0.4c0.09-0.08,0.22-0.17,0.39-0.28s0.45-0.36,0.86-0.74   c0.18-0.08,0.44-0.16,0.78-0.26c0.33-0.09,0.65-0.14,0.95-0.14s0.55,0.08,0.75,0.23c0.2,0.15,0.29,0.42,0.25,0.79   c0,0.15-0.02,0.27-0.06,0.34c-0.11,0.11-0.18,0.22-0.19,0.31c-0.02,0.1-0.05,0.2-0.08,0.31c-0.04,0.11-0.12,0.26-0.25,0.45   s-0.34,0.45-0.64,0.79c-0.11,0.11-0.22,0.22-0.33,0.31c-0.11,0.09-0.2,0.2-0.28,0.31c-0.26,0.15-0.5,0.27-0.72,0.37   c-0.22,0.1-0.45,0.22-0.67,0.37c-0.3,0.15-0.44,0.3-0.44,0.45c0,0.11,0.06,0.17,0.19,0.17c0.13,0,0.28,0,0.44,0   c0.17,0,0.32,0.03,0.45,0.09s0.19,0.2,0.19,0.43c0.11,0.26,0,0.43-0.33,0.51c-0.19,0-0.34,0.01-0.47,0.03   c-0.13,0.02-0.27,0.03-0.42,0.03c-0.04,0-0.09,0.08-0.17,0.23l-0.11,0.45c-0.08,0.3-0.21,0.45-0.42,0.43   c-0.21-0.02-0.31-0.12-0.31-0.31c0-0.15-0.04-0.26-0.11-0.34c-0.15,0-0.28,0.09-0.39,0.28c-0.08,0.15-0.31,0.3-0.7,0.45   c-0.39,0.15-0.7,0.28-0.92,0.4c-0.11,0.08-0.3,0.19-0.56,0.34c-0.26,0.15-0.52,0.31-0.78,0.48c-0.26,0.17-0.49,0.35-0.7,0.54   s-0.31,0.36-0.31,0.51c0,0.34,0.13,0.61,0.39,0.79c0.26,0.19,0.57,0.33,0.95,0.43c0.37,0.09,0.74,0.15,1.11,0.17   C838.37,630.01,838.65,630.02,838.83,630.02z M837.66,620.77c0,0.34-0.13,0.51-0.39,0.51c-0.26,0-0.37-0.09-0.33-0.28   c0.04-0.19,0.09-0.36,0.17-0.51c0.04-0.11,0.09-0.17,0.17-0.17C837.61,620.24,837.74,620.39,837.66,620.77z M841.22,620.65   c-0.19,0.23-0.33,0.41-0.42,0.54c-0.09,0.13-0.16,0.25-0.19,0.37c-0.04,0.11-0.07,0.26-0.08,0.43c-0.02,0.17-0.03,0.41-0.03,0.71   c0,0.11,0.07,0.17,0.22,0.17c0.11-0.04,0.31-0.15,0.58-0.34c0.28-0.19,0.55-0.41,0.81-0.65c0.26-0.25,0.49-0.5,0.69-0.77   s0.31-0.51,0.31-0.74c-0.11-0.3-0.27-0.44-0.47-0.43c-0.21,0.02-0.46,0.07-0.75,0.14C841.78,620.09,841.56,620.28,841.22,620.65z    M847.84,618.61c-0.19,0.53-0.23,1.02-0.14,1.47c0.09,0.45,0.06,0.91-0.08,1.36c-0.08,0.34-0.23,0.81-0.47,1.42   c-0.24,0.61-0.51,1.02-0.81,1.25c-0.3,0.19-0.52,0.39-0.67,0.6s-0.29,0.43-0.42,0.65c-0.13,0.23-0.26,0.45-0.39,0.68   c-0.13,0.23-0.33,0.47-0.58,0.74c-0.41,0.42-0.75,0.68-1.03,0.79c-0.28,0.11-0.68,0.25-1.2,0.4c-0.48,0.15-0.93,0.19-1.33,0.11   c-0.11-0.04-0.16-0.18-0.14-0.43s0.18-0.33,0.47-0.26c0.48,0.08,0.94-0.04,1.36-0.34c0.43-0.3,0.79-0.63,1.08-0.96   c0.3-0.38,0.62-0.88,0.97-1.5c0.35-0.63,0.7-1.05,1.03-1.28c0.44-0.26,0.7-0.6,0.78-1.02c0.07-0.42,0.2-0.72,0.39-0.91   c0.07-0.53,0.09-1.05,0.06-1.56c-0.04-0.51,0.04-0.99,0.22-1.45c0.19-0.42,0.4-0.56,0.64-0.43   C847.83,618.09,847.92,618.31,847.84,618.61z M844.95,627.18c-0.04-0.3,0.07-0.45,0.33-0.45c0.26,0,0.43,0.19,0.5,0.57   c0.07,0.42,0.07,0.71,0,0.88c-0.07,0.17-0.17,0.41-0.28,0.71c-0.22,0.53-0.48,0.68-0.78,0.45c-0.3-0.23-0.33-0.57-0.11-1.02   C844.91,628.01,845.02,627.63,844.95,627.18z M851.46,622.13c0-0.3,0.11-0.45,0.33-0.45c0.26,0,0.41,0.15,0.45,0.45   c0.18,0.45,0.25,0.97,0.19,1.56c-0.06,0.59-0.18,1.09-0.36,1.5c-0.3,0.68-0.6,1.02-0.92,1.02c-0.32,0-0.68,0-1.08,0   c-0.33,0.04-0.63,0.23-0.89,0.57c-0.19,0.3-0.36,0.47-0.53,0.51c-0.17,0.04-0.34,0.25-0.53,0.62c-0.07,0.15-0.19,0.24-0.36,0.26   c-0.17,0.02-0.33-0.01-0.47-0.08c-0.15-0.15-0.22-0.28-0.22-0.4c0-0.08,0.06-0.21,0.2-0.4c0.13-0.19,0.29-0.38,0.47-0.57   c0.18-0.19,0.35-0.37,0.5-0.54c0.15-0.17,0.26-0.29,0.33-0.37c0.59-0.53,1.24-0.74,1.95-0.62c0.37,0.04,0.65-0.11,0.83-0.45   c0.11-0.3,0.17-0.72,0.17-1.25C851.51,622.96,851.49,622.51,851.46,622.13z M849.9,627.35c0.04-0.3,0.13-0.49,0.28-0.57   c0.26-0.11,0.43,0.02,0.5,0.4s0.1,0.72,0.08,1.02c-0.02,0.3-0.01,0.62,0.03,0.96c0.04,0.45-0.08,0.68-0.33,0.68   c-0.22,0-0.39-0.15-0.5-0.45c-0.08-0.34-0.11-0.68-0.11-1.02S849.86,627.69,849.9,627.35z M872.26,615.6   c0.04,0.08,0.1,0.26,0.2,0.54c0.09,0.28,0.17,0.58,0.22,0.88c0.06,0.3,0.09,0.59,0.11,0.85c0.02,0.27,0.01,0.44-0.03,0.51   c-0.11,0.34-0.28,0.67-0.5,0.99c-0.22,0.32-0.48,0.64-0.78,0.96c-0.3,0.32-0.59,0.62-0.89,0.88c-0.3,0.26-0.58,0.51-0.83,0.74   c-0.74,0.57-1.54,1.11-2.39,1.62c-0.85,0.51-1.75,0.95-2.7,1.3c-0.95,0.36-1.9,0.63-2.87,0.82s-1.91,0.23-2.84,0.11   c-1.22-0.15-2.21-0.51-2.95-1.08c-0.07,0.04-0.11,0.12-0.11,0.25c0,0.13,0,0.28,0,0.43c0,0.15-0.03,0.29-0.08,0.43   c-0.06,0.13-0.18,0.22-0.36,0.26c-0.3,0.08-0.45-0.05-0.47-0.37c-0.02-0.32-0.03-0.63-0.03-0.94c-0.37,0.15-0.59,0.45-0.67,0.91   c-0.08,0.68-0.1,1.38-0.08,2.1c0.02,0.72,0.03,1.44,0.03,2.16c0,0.11,0,0.32,0,0.63s0.02,0.62,0.06,0.94   c0.04,0.32,0.09,0.62,0.17,0.88c0.07,0.27,0.17,0.44,0.28,0.51c0.11,0.11,0.13,0.26,0.06,0.43c-0.08,0.17-0.18,0.3-0.31,0.4   s-0.28,0.13-0.44,0.11c-0.17-0.02-0.29-0.18-0.36-0.48c-0.11-0.38-0.21-0.68-0.28-0.91c-0.08-0.23-0.13-0.44-0.17-0.65   c-0.04-0.21-0.07-0.44-0.08-0.71s-0.01-0.63,0.03-1.08c0.04-0.3,0.06-0.59,0.08-0.85s0.03-0.55,0.03-0.85   c0.04-0.3,0.04-0.65,0-1.05c-0.04-0.4-0.04-0.8,0-1.22c0.07-0.76,0.35-1.34,0.83-1.76c0.33-0.23,0.61-0.45,0.83-0.68   c0.07-0.08,0.11-0.15,0.11-0.23c0-0.08,0.02-0.15,0.06-0.23c0.07-0.15,0.19-0.23,0.33-0.23c0.15,0,0.26,0.09,0.33,0.28l0.28,0.4   c0.63,0.53,1.41,0.87,2.34,1.02s1.88,0.16,2.86,0.03s1.95-0.37,2.89-0.71c0.95-0.34,1.85-0.77,2.73-1.28   c0.87-0.51,1.64-1.05,2.31-1.62c0.41-0.34,0.91-0.73,1.5-1.16c0.59-0.43,0.91-0.92,0.95-1.45c0.11-0.49,0.13-0.92,0.06-1.28   c-0.08-0.36-0.19-0.75-0.33-1.16c-0.07-0.23-0.08-0.4-0.03-0.51s0.14-0.19,0.25-0.23c0.11-0.04,0.23-0.02,0.36,0.06   C872.08,615.4,872.18,615.49,872.26,615.6z M871.2,629c-0.19-0.04-0.31-0.13-0.36-0.28s-0.06-0.31,0-0.48s0.15-0.33,0.28-0.48   c0.13-0.15,0.29-0.25,0.47-0.28c0.59,0.11,0.84,0.4,0.75,0.85C872.25,628.77,871.87,629,871.2,629z" fill="#5d7892"/>
</svg>